HIERARCHY
ROOT Root
{
  OFFSET 0.0 0.0 0.0
  CHANNELS 6 Xposition Yposition Zposition Zrotation Yrotation Xrotation
  JOINT Hips
  {
    OFFSET 0.0 100.0 0.0
    CHANNELS 6 Xposition Yposition Zposition Zrotation Yrotation Xrotation
    JOINT Spine1
    {
      OFFSET -0.013727 5.003763 -0.053727
      CHANNELS 3 Zrotation Yrotation Xrotation
      JOINT Spine2
      {
        OFFSET -0.0 7.125301 -0.029825
        CHANNELS 3 Zrotation Yrotation Xrotation
        JOINT Chest
        {
          OFFSET -1e-06 7.550063 -0.815971
          CHANNELS 3 Zrotation Yrotation Xrotation
          JOINT Neck1
          {
            OFFSET -0.181677 26.311295 -0.553348
            CHANNELS 3 Zrotation Yrotation Xrotation
            JOINT Neck2
            {
              OFFSET -3e-06 7.709397 2.302585
              CHANNELS 3 Zrotation Yrotation Xrotation
              JOINT Head
              {
                OFFSET -5e-06 6.128916 1.953709
                CHANNELS 3 Zrotation Yrotation Xrotation
                JOINT HeadEnd
                {
                  OFFSET 0.003598 16.065403 -1.835379
                  CHANNELS 3 Zrotation Yrotation Xrotation
                }
                JOINT Jaw
                {
                  OFFSET 0.002637 0.475592 3.094941
                  CHANNELS 3 Zrotation Yrotation Xrotation
                }
                JOINT LeftEye
                {
                  OFFSET 3.206381 5.380205 7.586883
                  CHANNELS 3 Zrotation Yrotation Xrotation
                }
                JOINT RightEye
                {
                  OFFSET -3.22244 5.361869 7.558234
                  CHANNELS 3 Zrotation Yrotation Xrotation
                }
              }
            }
          }
          JOINT LeftShoulder
          {
            OFFSET 1.621652 23.237164 5.113413
            CHANNELS 3 Zrotation Yrotation Xrotation
            JOINT LeftArm
            {
              OFFSET 14.919846 2e-06 -5.502326
              CHANNELS 3 Zrotation Yrotation Xrotation
              JOINT LeftForeArm
              {
                OFFSET 28.739307 0.0 -0.002588
                CHANNELS 3 Zrotation Yrotation Xrotation
                JOINT LeftHand
                {
                  OFFSET 27.093981 -1e-06 0.002609
                  CHANNELS 3 Zrotation Yrotation Xrotation
                  JOINT LeftHandThumb1
                  {
                    OFFSET 2.276482 -1.392045 3.191413
                    CHANNELS 3 Zrotation Yrotation Xrotation
                    JOINT LeftHandThumb2
                    {
                      OFFSET 4.012836 -1.828127 1.641654
                      CHANNELS 3 Zrotation Yrotation Xrotation
                      JOINT LeftHandThumb3
                      {
                        OFFSET 2.798515 0.0 -3e-06
                        CHANNELS 3 Zrotation Yrotation Xrotation
                        JOINT LeftHandThumbEnd
                        {
                          OFFSET 3.180793 -4e-06 4e-06
                          CHANNELS 3 Zrotation Yrotation Xrotation
                        }
                      }
                    }
                  }
                  JOINT LeftHandIndex1
                  {
                    OFFSET 3.247555 -0.531998 2.296169
                    CHANNELS 3 Zrotation Yrotation Xrotation
                    JOINT LeftHandIndex2
                    {
                      OFFSET 6.364578 0.01206 0.1786
                      CHANNELS 3 Zrotation Yrotation Xrotation
                      JOINT LeftHandIndex3
                      {
                        OFFSET 3.662364 0.0 0.0
                        CHANNELS 3 Zrotation Yrotation Xrotation
                        JOINT LeftHandIndex4
                        {
                          OFFSET 2.329242 4e-06 4e-06
                          CHANNELS 3 Zrotation Yrotation Xrotation
                          JOINT LeftHandIndexEnd
                          {
                            OFFSET 2.759615 -0.180537 -0.113024
                            CHANNELS 3 Zrotation Yrotation Xrotation
                          }
                        }
                      }
                    }
                  }
                  JOINT LeftHandMiddle1
                  {
                    OFFSET 3.163495 0.240981 1.000332
                    CHANNELS 3 Zrotation Yrotation Xrotation
                    JOINT LeftHandMiddle2
                    {
                      OFFSET 6.19078 -0.259278 -1.002548
                      CHANNELS 3 Zrotation Yrotation Xrotation
                      JOINT LeftHandMiddle3
                      {
                        OFFSET 4.35652 -4e-06 -1e-06
                        CHANNELS 3 Zrotation Yrotation Xrotation
                        JOINT LeftHandMiddle4
                        {
                          OFFSET 2.996877 -8e-06 0.0
                          CHANNELS 3 Zrotation Yrotation Xrotation
                          JOINT LeftHandMiddleEnd
                          {
                            OFFSET 2.304287 -0.294569 -0.031741
                            CHANNELS 3 Zrotation Yrotation Xrotation
                          }
                        }
                      }
                    }
                  }
                  JOINT LeftHandRing1
                  {
                    OFFSET 2.882643 -0.053652 -0.322543
                    CHANNELS 3 Zrotation Yrotation Xrotation
                    JOINT LeftHandRing2
                    {
                      OFFSET 5.854541 -0.486202 -1.373841
                      CHANNELS 3 Zrotation Yrotation Xrotation
                      JOINT LeftHandRing3
                      {
                        OFFSET 4.350578 0.0 3e-06
                        CHANNELS 3 Zrotation Yrotation Xrotation
                        JOINT LeftHandRing4
                        {
                          OFFSET 2.651321 7e-06 2e-06
                          CHANNELS 3 Zrotation Yrotation Xrotation
                          JOINT LeftHandRingEnd
                          {
                            OFFSET 1.936105 0.077687 -7.1e-05
                            CHANNELS 3 Zrotation Yrotation Xrotation
                          }
                        }
                      }
                    }
                  }
                  JOINT LeftHandPinky1
                  {
                    OFFSET 2.8655 -0.310005 -1.600378
                    CHANNELS 3 Zrotation Yrotation Xrotation
                    JOINT LeftHandPinky2
                    {
                      OFFSET 5.087849 -1.331141 -1.77123
                      CHANNELS 3 Zrotation Yrotation Xrotation
                      JOINT LeftHandPinky3
                      {
                        OFFSET 3.070974 4e-06 0.0
                        CHANNELS 3 Zrotation Yrotation Xrotation
                        JOINT LeftHandPinky4
                        {
                          OFFSET 1.549672 0.0 1e-06
                          CHANNELS 3 Zrotation Yrotation Xrotation
                          JOINT LeftHandPinkyEnd
                          {
                            OFFSET 1.944893 -0.157802 0.057219
                            CHANNELS 3 Zrotation Yrotation Xrotation
                          }
                        }
                      }
                    }
                  }
                }
              }
            }
          }
          JOINT RightShoulder
          {
            OFFSET -1.380118 23.180309 5.214158
            CHANNELS 3 Zrotation Yrotation Xrotation
            JOINT RightArm
            {
              OFFSET -15.037196 1.2e-05 -5.545604
              CHANNELS 3 Zrotation Yrotation Xrotation
              JOINT RightForeArm
              {
                OFFSET -28.736639 2e-06 -0.002597
                CHANNELS 3 Zrotation Yrotation Xrotation
                JOINT RightHand
                {
                  OFFSET -27.133619 -0.0 0.002613
                  CHANNELS 3 Zrotation Yrotation Xrotation
                  JOINT RightHandThumb1
                  {
                    OFFSET -2.274032 -1.383988 3.163127
                    CHANNELS 3 Zrotation Yrotation Xrotation
                    JOINT RightHandThumb2
                    {
                      OFFSET -4.011429 -1.827466 1.640914
                      CHANNELS 3 Zrotation Yrotation Xrotation
                      JOINT RightHandThumb3
                      {
                        OFFSET -2.794935 -4e-06 -3e-06
                        CHANNELS 3 Zrotation Yrotation Xrotation
                        JOINT RightHandThumbEnd
                        {
                          OFFSET -3.183852 4e-06 1e-06
                          CHANNELS 3 Zrotation Yrotation Xrotation
                        }
                      }
                    }
                  }
                  JOINT RightHandIndex1
                  {
                    OFFSET -3.253266 -0.520057 2.282866
                    CHANNELS 3 Zrotation Yrotation Xrotation
                    JOINT RightHandIndex2
                    {
                      OFFSET -6.341917 0.012471 0.178266
                      CHANNELS 3 Zrotation Yrotation Xrotation
                      JOINT RightHandIndex3
                      {
                        OFFSET -3.654871 -8e-06 -0.0
                        CHANNELS 3 Zrotation Yrotation Xrotation
                        JOINT RightHandIndex4
                        {
                          OFFSET -2.327586 0.0 1e-06
                          CHANNELS 3 Zrotation Yrotation Xrotation
                          JOINT RightHandIndexEnd
                          {
                            OFFSET -2.76179 -0.180656 -0.113078
                            CHANNELS 3 Zrotation Yrotation Xrotation
                          }
                        }
                      }
                    }
                  }
                  JOINT RightHandMiddle1
                  {
                    OFFSET -3.168106 0.246593 1.00103
                    CHANNELS 3 Zrotation Yrotation Xrotation
                    JOINT RightHandMiddle2
                    {
                      OFFSET -6.180828 -0.258836 -1.000895
                      CHANNELS 3 Zrotation Yrotation Xrotation
                      JOINT RightHandMiddle3
                      {
                        OFFSET -4.348901 0.0 -0.0
                        CHANNELS 3 Zrotation Yrotation Xrotation
                        JOINT RightHandMiddle4
                        {
                          OFFSET -3.00024 -4e-06 -2e-06
                          CHANNELS 3 Zrotation Yrotation Xrotation
                          JOINT RightHandMiddleEnd
                          {
                            OFFSET -2.30252 -0.29437 -0.031706
                            CHANNELS 3 Zrotation Yrotation Xrotation
                          }
                        }
                      }
                    }
                  }
                  JOINT RightHandRing1
                  {
                    OFFSET -2.88569 -0.067952 -0.308858
                    CHANNELS 3 Zrotation Yrotation Xrotation
                    JOINT RightHandRing2
                    {
                      OFFSET -5.854198 -0.48613 -1.373731
                      CHANNELS 3 Zrotation Yrotation Xrotation
                      JOINT RightHandRing3
                      {
                        OFFSET -4.33881 -4e-06 -0.0
                        CHANNELS 3 Zrotation Yrotation Xrotation
                        JOINT RightHandRing4
                        {
                          OFFSET -2.654903 -4e-06 4e-06
                          CHANNELS 3 Zrotation Yrotation Xrotation
                          JOINT RightHandRingEnd
                          {
                            OFFSET -1.933568 0.077527 -5.2e-05
                            CHANNELS 3 Zrotation Yrotation Xrotation
                          }
                        }
                      }
                    }
                  }
                  JOINT RightHandPinky1
                  {
                    OFFSET -2.866425 -0.342796 -1.584145
                    CHANNELS 3 Zrotation Yrotation Xrotation
                    JOINT RightHandPinky2
                    {
                      OFFSET -5.091371 -1.332055 -1.772385
                      CHANNELS 3 Zrotation Yrotation Xrotation
                      JOINT RightHandPinky3
                      {
                        OFFSET -3.062664 -4e-06 1e-06
                        CHANNELS 3 Zrotation Yrotation Xrotation
                        JOINT RightHandPinky4
                        {
                          OFFSET -1.546529 4e-06 -2e-06
                          CHANNELS 3 Zrotation Yrotation Xrotation
                          JOINT RightHandPinkyEnd
                          {
                            OFFSET -1.945119 -0.157718 0.057211
                            CHANNELS 3 Zrotation Yrotation Xrotation
                          }
                        }
                      }
                    }
                  }
                }
              }
            }
          }
        }
      }
    }
    JOINT LeftLeg
    {
      OFFSET 10.043214 -8.434526 2.595655
      CHANNELS 3 Zrotation Yrotation Xrotation
      JOINT LeftShin
      {
        OFFSET -1e-06 -43.221752 -0.802913
        CHANNELS 3 Zrotation Yrotation Xrotation
        JOINT LeftFoot
        {
          OFFSET 1e-06 -42.155094 -3.481523
          CHANNELS 3 Zrotation Yrotation Xrotation
          JOINT LeftToeBase
          {
            OFFSET 0.0 -5.059472 13.231529
            CHANNELS 3 Zrotation Yrotation Xrotation
            JOINT LeftToeEnd
            {
              OFFSET -0.009607 -1.647619 6.513017
              CHANNELS 3 Zrotation Yrotation Xrotation
            }
          }
        }
      }
    }
    JOINT RightLeg
    {
      OFFSET -10.047278 -8.29526 2.620317
      CHANNELS 3 Zrotation Yrotation Xrotation
      JOINT RightShin
      {
        OFFSET 1e-06 -43.362206 -0.805556
        CHANNELS 3 Zrotation Yrotation Xrotation
        JOINT RightFoot
        {
          OFFSET 2e-06 -42.117393 -3.478398
          CHANNELS 3 Zrotation Yrotation Xrotation
          JOINT RightToeBase
          {
            OFFSET -0.0 -5.079609 13.284196
            CHANNELS 3 Zrotation Yrotation Xrotation
            JOINT RightToeEnd
            {
              OFFSET 0.009532 -1.634378 6.460591
              CHANNELS 3 Zrotation Yrotation Xrotation
            }
          }
        }
      }
    }
  }
}
MOTION
Frames: 4
Frame Time: 0.03333333333333333
-0.187301 0.0 -7.601194 0.0 -0.0 0.0 0.0 97.958351 0.0 1.223607 -0.486391 3.048053 -0.819056 0.315397 4.545927 -1.225326 2.049716 -3.606739 -1.209201 0.403111 10.446325 1.733563 2.963702 0.13916 -1.181291 -2.851383 -3.565632 1.86823 -4.681011 -15.704927 -9.4e-05 0.000268 0.000649 0.022066 0.000605 -0.057201 0.558842 -3.777792 -10.513162 -0.516696 3.765389 -10.482878 -13.289233 0.953754 18.457716 -51.397526 8.819509 6.885859 -175.523132 -71.40126 174.493835 -4.783492 4.184544 8.182458 -5.884102 9.874934 0.638694 -10.937385 -0.368281 7.148842 0.004897 8.777566 -0.000687 -15.917212 18.206221 6.632563 -1.842182 2.494662 -2.543139 -10.174981 4.671874 4.62206 -20.992823 -0.004172 0.00457 -21.246775 2.448143 -3.603734 0.001846 -0.008878 -0.000156 -1.346078 2.224154 -0.76925 -21.360741 0.603398 2.997275 -13.824038 -0.004733 0.007328 -23.905247 -0.256804 -0.83806 -61.175709 2.549934 -1.446983 -0.280271 1.677476 0.813665 -14.217162 0.070972 1.297114 -34.228901 -0.284376 0.96675 -20.029617 0.973341 1.215618 -0.000667 0.004636 0.000567 -3.443014 0.776518 0.472609 -15.923898 -3.168063 3.002328 -6.349861 -0.004171 -0.000774 -18.135996 3.649983 -4.919548 -0.00516 -0.001942 0.000402 13.399598 10.480301 16.732903 45.070667 11.795698 18.202452 -176.235321 61.776958 -177.111786 5.55282 2.181244 -0.289371 2.270615 -5.178662 -3.094675 14.286368 -0.844757 6.987264 -0.019874 -12.705404 -0.006155 16.811569 -18.146835 2.783189 1.672771 -1.95748 -2.890526 4.710327 -4.180862 4.989401 11.043855 0.011353 0.001262 12.120033 -3.73311 -2.877172 0.002063 -0.011121 -0.001364 1.287095 -1.942132 -1.511327 14.818719 0.584876 3.869724 14.259037 -1.335446 -6.662531 19.676731 0.159885 -0.631212 50.382423 -0.725464 -6.358831 0.338501 -1.525986 -0.047273 20.244576 3.71061 2.32534 18.810631 0.006771 0.006123 10.751857 -0.482989 1.418961 0.003982 0.007571 0.002627 3.279807 0.292538 -0.599051 21.507734 11.864902 2.289959 8.174394 0.001356 0.001436 18.407572 -3.792127 -4.947021 -0.000144 -0.001536 0.003512 -5.858088 7.796703 -30.308163 0.032105 0.406086 22.992809 -15.561248 -6.245487 0.055246 1.510072 -2.275059 -4.264634 0.001106 -0.002396 0.004292 -3.508674 -11.143407 -0.771133 -0.158672 0.611635 72.808693 1.663056 1.490337 10.115975 -1.105197 0.900536 -5.331644 -0.000752 0.000587 -0.001314 
-0.129942 0.0 0.443675 0.0 -0.0 0.0 0.0 94.779266 0.0 2.956365 0.171042 1.907348 -2.5062 -0.208505 5.469254 -1.272732 1.251664 -3.493731 -1.674639 -0.65547 11.176767 1.923696 2.698818 -0.521307 -1.127663 -2.55494 -3.601482 1.405533 -3.983267 -18.680883 -6.2e-05 -0.000803 -0.006762 0.003132 -0.047915 -0.077685 0.5956 -3.819498 -10.499715 -0.594963 3.714902 -10.504189 -15.627299 -0.808932 18.136444 -47.553551 4.159974 7.44319 -177.233978 -75.43261 176.794724 -2.320332 3.650694 5.955275 -5.875247 9.87243 0.751857 -10.925174 -0.358784 7.190759 -0.007927 8.785866 0.004792 -15.705647 18.194603 6.811952 -1.83115 2.499741 -2.506798 -10.180588 4.679392 4.617767 -21.007404 -0.008335 0.002617 -21.2299 2.461434 -3.591969 -0.006359 -0.001505 0.004204 -1.358853 2.242321 -0.746462 -21.351328 0.576473 3.012785 -13.832671 0.010764 -0.004914 -23.92786 -0.245515 -0.816185 -60.893925 2.674527 -1.423435 -0.30316 1.682646 0.833602 -14.207166 0.077112 1.281885 -34.274883 -0.282373 0.966592 -20.049547 0.99116 1.215266 -0.002611 0.013879 -0.007403 -3.440251 0.792109 0.492295 -15.923685 -3.16663 2.996619 -6.363004 0.002502 0.000804 -18.134727 3.674622 -4.906921 -0.00275 -0.00512 -0.003953 14.687875 8.906854 16.853191 45.059212 7.389935 18.206354 -176.466782 68.178474 -177.132324 3.976751 2.030324 0.634804 2.274828 -5.193645 -3.168857 14.270782 -0.808896 6.956384 -0.015685 -12.688108 -0.011645 16.698845 -18.182713 2.819357 1.664069 -1.956633 -2.892073 4.745764 -4.167233 4.985005 11.040769 0.001573 0.002334 12.12405 -3.727799 -2.871162 2e-06 0.000623 0.001504 1.299955 -1.933501 -1.51377 14.811954 0.580462 3.869735 14.267848 -1.350796 -6.676325 19.656826 0.151472 -0.665555 50.189457 -0.873482 -6.204581 0.366936 -1.516585 -0.052257 20.244116 3.68609 2.335323 18.807695 0.014723 0.005037 10.759424 -0.475001 1.40246 0.000532 0.002162 0.003286 3.293836 0.3093 -0.605204 21.511358 11.821486 2.287149 8.178027 0.005972 -0.005296 18.411642 -3.78188 -4.938191 -0.003343 0.002265 -0.002272 -7.04508 4.530292 -29.522728 0.405587 0.750464 35.938873 0.763955 -3.671928 -8.466748 1.618594 -2.042373 -2.021163 0.000703 -0.000236 0.002125 -6.477243 -11.267261 -8.792286 0.01375 0.278216 87.976051 -1.014554 -0.509025 6.549438 -1.226597 0.91817 -4.314115 -0.000953 0.001026 0.000415 
-0.671587 0.0 11.617628 0.0 -0.0 0.0 0.0 93.138214 0.0 4.355814 0.234323 0.483211 -3.509112 -0.60274 6.376305 -1.401074 0.897185 -3.203627 -2.592077 -1.377881 12.228634 2.470181 2.453199 -1.030636 -1.012774 -2.000468 -3.655206 1.068927 -2.621581 -21.975481 -0.000229 -7.9e-05 -1.7e-05 -0.006062 -0.061646 0.000734 0.643516 -3.818394 -10.495004 -0.663963 3.681004 -10.491978 -17.025743 -2.909185 17.860601 -42.396061 -3.467874 8.212085 -177.265732 -80.573563 177.402954 -1.145937 3.531599 7.687059 -5.898055 9.936257 0.658171 -10.908611 -0.315322 7.171611 0.001564 8.767488 0.005132 -15.543549 18.047014 6.759744 -1.846074 2.498733 -2.506958 -10.157376 4.65879 4.623672 -20.981821 -0.024476 0.02079 -21.214474 2.435095 -3.567285 -0.003894 -0.009209 0.003022 -1.345602 2.231797 -0.735142 -21.350824 0.567447 2.996134 -13.832501 0.006024 0.008908 -23.912474 -0.259908 -0.808752 -60.086227 2.555964 -1.242983 -0.275535 1.665261 0.84569 -14.232512 0.085924 1.272996 -34.209824 -0.300394 0.997185 -20.0329 0.94623 1.219578 0.010099 0.003257 0.006518 -3.431875 0.758081 0.521498 -15.94188 -3.173889 2.976511 -6.335942 -0.006082 0.001131 -18.132799 3.642414 -4.889489 -0.004477 0.000134 0.002073 15.958821 7.449167 18.769047 45.499367 3.025118 18.203888 -176.930847 77.151924 -177.352432 0.795129 2.321547 7.304435 2.206347 -5.274704 -3.18438 14.27165 -0.888532 6.960372 -0.013054 -12.713595 0.010683 16.509369 -18.000547 2.604316 1.662356 -1.939798 -2.88047 4.722214 -4.181781 4.995507 11.030988 -0.007012 0.000989 12.112569 -3.711977 -2.871355 0.000393 0.010195 0.000649 1.28719 -1.918669 -1.481327 14.788354 0.586406 3.852625 14.242461 -1.349362 -6.666592 19.63063 0.179652 -0.650883 49.849804 -0.847904 -6.229971 0.364296 -1.504816 -0.018189 20.218256 3.700698 2.303396 18.791254 0.011128 -0.002682 10.74918 -0.472905 1.395561 -0.000169 -0.006735 0.001302 3.274926 0.309358 -0.558995 21.476507 11.871188 2.23433 8.15914 0.002199 -0.003906 18.37319 -3.801638 -4.935442 0.000834 6.2e-05 -0.001541 -7.41787 2.518458 -23.395451 0.410456 0.657553 42.975124 1.935766 -0.930422 -20.217363 1.589885 -1.916492 -0.778499 -4.8e-05 -2.6e-05 0.001866 -7.87373 -10.61369 -18.930895 0.026721 0.179958 98.359238 -3.242999 -0.622213 4.449799 -1.33012 0.931736 -4.41975 0.000442 0.000849 0.002476 
-1.292709 0.0 22.203197 0.0 -0.0 0.0 0.0 93.050766 0.0 3.550759 0.153204 -0.32022 -3.350149 -0.880119 6.790839 -1.197128 0.01074 -2.98795 -2.171899 -2.214206 12.199748 1.820094 2.253754 -0.851457 -0.61905 -0.674761 -3.606676 0.712853 -1.617142 -22.342749 -0.000278 -0.000853 -0.004324 0.025906 0.08208 0.067911 0.674229 -3.640527 -10.416981 -0.627707 3.797244 -10.416581 -15.736423 -4.607699 17.557308 -41.325134 -9.456596 7.606991 -176.787231 -80.226418 177.072556 -2.340327 2.732947 10.006018 -5.904338 9.874797 0.794015 -10.940811 -0.322972 7.181042 0.00291 8.777205 0.013192 -15.591674 17.954565 6.375937 -1.85246 2.484549 -2.508036 -10.142058 4.671587 4.627459 -20.980722 0.003885 0.007523 -21.221331 2.439764 -3.569211 0.000946 0.009887 -0.001749 -1.356651 2.215942 -0.737568 -21.33457 0.590764 3.01217 -13.791925 -0.003747 0.001467 -23.86005 -0.239741 -0.826446 -59.672153 2.415143 -1.458496 -0.287194 1.671951 0.851866 -14.226253 0.058792 1.288726 -34.218143 -0.263198 0.975722 -20.039064 0.964022 1.219972 0.005581 -0.002118 -0.000462 -3.428146 0.759213 0.514248 -15.951055 -3.170915 2.98057 -6.340816 0.013054 0.01175 -18.131348 3.634288 -4.893498 -0.003106 5.2e-05 -0.001581 16.16037 5.945404 19.468233 46.060757 -2.371026 19.251095 -176.372009 81.162865 -176.765656 0.056012 2.649101 12.301927 2.212166 -5.21904 -3.13645 14.293475 -0.810185 6.961136 0.00594 -12.703021 -0.003452 16.637039 -17.719648 2.410844 1.637173 -1.934306 -2.887282 4.738511 -4.1856 5.014662 11.027706 -0.007497 -0.004541 12.136076 -3.723736 -2.856544 -0.004776 -0.007013 -0.002984 1.266332 -1.915583 -1.484024 14.822757 0.558077 3.864635 14.244805 -1.333102 -6.664426 19.641848 0.135552 -0.640494 49.826992 -0.611636 -6.272234 0.316456 -1.493506 -0.042048 20.269501 3.666119 2.334864 18.811161 0.022318 0.000654 10.756206 -0.506083 1.40594 0.001182 0.005214 2.6e-05 3.261548 0.32397 -0.605431 21.500507 11.803041 2.284484 8.163793 -0.008619 -0.001068 18.41683 -3.791661 -4.954592 -0.00038 -0.005621 0.003807 -5.466599 4.01527 -13.596019 0.125607 0.396575 40.533096 1.193092 -2.281224 -26.683266 1.641442 -1.970582 -1.261628 -0.000185 -9e-06 0.003056 -5.92198 -10.071829 -28.877867 0.042565 -0.030995 100.033707 -4.164306 0.258292 3.672182 -1.273902 0.873281 -4.920183 -0.000301 0.001087 -0.001213 
